<svg width="18" height="16" viewBox="0 0 18 16" fill="none" xmlns="http://www.w3.org/2000/svg">
<path d="M7.5742 15.1323L1.2992 8.88572C0.8275 8.41572 0.8275 7.58402 1.2992 7.11232L7.5742 0.86572C8.0642 0.37902 8.8558 0.38072 9.3425 0.87072C9.8292 1.36072 9.8292 2.15072 9.3392 2.63902L5.2108 6.75072H15.8025C16.4942 6.75072 17.0525 7.31072 17.0525 8.00072C17.0525 8.69072 16.4942 9.25072 15.8025 9.25072H5.2108L9.3392 13.3607C9.5842 13.6057 9.7058 13.9257 9.7058 14.2473C9.7058 14.5657 9.5842 14.8857 9.3425 15.129C8.8558 15.6173 8.0642 15.619 7.5742 15.1323Z" fill="black"/>
</svg>
