<svg width="18" height="16" viewBox="0 0 18 16" fill="none" xmlns="http://www.w3.org/2000/svg">
<path d="M10.4258 15.1323L16.7008 8.88572C17.1725 8.41572 17.1725 7.58402 16.7008 7.11232L10.4258 0.86572C9.9358 0.37902 9.1442 0.38072 8.6575 0.87072C8.1708 1.36072 8.1708 2.15072 8.6608 2.63902L12.7892 6.75072H2.1975C1.5058 6.75072 0.947498 7.31072 0.947498 8.00072C0.947498 8.69072 1.5058 9.25072 2.1975 9.25072H12.7892L8.6608 13.3607C8.4158 13.6057 8.2942 13.9257 8.2942 14.2473C8.2942 14.5657 8.4158 14.8857 8.6575 15.129C9.1442 15.6173 9.9358 15.619 10.4258 15.1323Z" fill="black"/>
</svg>
