<svg width="30" height="30" viewBox="0 0 30 30" fill="none" xmlns="http://www.w3.org/2000/svg">
<path opacity="0.4" d="M20.7753 27.5H9.2245C5.86142 27.5 3.12488 24.7888 3.12488 21.4557V14.7943C3.12488 11.4612 5.86142 8.75 9.2245 8.75H20.7753C24.1383 8.75 26.8749 11.4612 26.8749 14.7943V21.4557C26.8749 24.7888 24.1383 27.5 20.7753 27.5Z" fill="white"/>
<path d="M19.6939 12.5C19.18 12.5 18.7628 12.0954 18.7628 11.5969V7.94612C18.7628 5.93889 17.0794 4.30614 15.0112 4.30614C14.059 4.30614 13.0596 4.677 12.3483 5.35972C11.6357 6.04485 11.2409 6.95635 11.2372 7.92926V11.5969C11.2372 12.0954 10.82 12.5 10.3061 12.5C9.79213 12.5 9.375 12.0954 9.375 11.5969V7.94612C9.38121 6.46628 9.97214 5.10084 11.0373 4.07857C12.1012 3.05388 13.4767 2.53974 15.0149 2.5C18.1061 2.5 20.625 4.94311 20.625 7.94612V11.5969C20.625 12.0954 20.2079 12.5 19.6939 12.5Z" fill="white"/>
</svg>
