<svg width="34" height="34" viewBox="0 0 34 34" fill="none" xmlns="http://www.w3.org/2000/svg">
<path d="M23.5455 31.1667H10.4546C6.64308 31.1667 3.54167 28.094 3.54167 24.3165V16.7669C3.54167 12.9894 6.64308 9.91669 10.4546 9.91669H23.5455C27.357 9.91669 30.4583 12.9894 30.4583 16.7669V24.3165C30.4583 28.094 27.357 31.1667 23.5455 31.1667Z" fill="#9AAFDF"/>
<path d="M22.3198 14.1666C21.7373 14.1666 21.2645 13.7081 21.2645 13.1431V9.00558C21.2645 6.73072 19.3567 4.88027 17.0127 4.88027C15.9335 4.88027 14.8009 5.30058 13.9947 6.07433C13.1871 6.85081 12.7397 7.88384 12.7355 8.98647V13.1431C12.7355 13.7081 12.2627 14.1666 11.6802 14.1666C11.0977 14.1666 10.625 13.7081 10.625 13.1431V9.00558C10.632 7.32843 11.3018 5.78093 12.5089 4.62236C13.7147 3.46104 15.2736 2.87835 17.0169 2.83331C20.5202 2.83331 23.375 5.60217 23.375 9.00558V13.1431C23.375 13.7081 22.9023 14.1666 22.3198 14.1666Z" fill="#1D50C9"/>
</svg>
