<svg width="72" height="73" viewBox="0 0 72 73" fill="none" xmlns="http://www.w3.org/2000/svg">
<g clip-path="url(#clip0_27199_397)">
<path fill-rule="evenodd" clip-rule="evenodd" d="M25.5949 9.10908C32.1494 5.30059 40.2061 5.36716 46.6991 9.28345C53.1284 13.2795 57.0359 20.4113 56.9995 28.0831C56.8499 35.7046 52.6599 42.8688 47.4224 48.4071C44.3995 51.618 41.0178 54.4573 37.3465 56.8669C36.9684 57.0856 36.5542 57.2319 36.1245 57.2988C35.7108 57.2812 35.3079 57.159 34.9523 56.9431C29.3473 53.3225 24.43 48.7009 20.437 43.3007C17.0958 38.7929 15.1975 33.3468 15 27.7021C14.9957 20.0155 19.0403 12.9176 25.5949 9.10908ZM29.3825 30.8831C30.4851 33.6013 33.0875 35.3743 35.9748 35.3743C37.8663 35.3879 39.6846 34.6303 41.0244 33.2702C42.3643 31.9102 43.1144 30.0607 43.1077 28.1339C43.1178 25.1929 41.3864 22.5357 38.7218 21.4031C36.0572 20.2705 32.9851 20.8858 30.94 22.9618C28.8948 25.0378 28.2799 28.165 29.3825 30.8831Z" fill="white"/>
</g>
<defs>
<clipPath id="clip0_27199_397">
<rect width="72" height="72" fill="white" transform="translate(0 0.298767)"/>
</clipPath>
</defs>
</svg>
