<svg width="72" height="73" viewBox="0 0 72 73" fill="none" xmlns="http://www.w3.org/2000/svg">
<g clip-path="url(#clip0_35606_16)">
<path opacity="0.4" d="M34.3466 65.9913C27.6878 61.8783 21.4977 57.0286 15.8898 51.5309C11.9307 47.6055 8.90718 42.8126 7.05014 37.5182C3.73205 27.1931 7.59452 15.393 18.3783 11.8899C24.0702 10.1024 30.2606 11.1997 35.0206 14.8399C39.7824 11.2037 45.9708 10.1068 51.6629 11.8899C62.4468 15.393 66.3351 27.1931 63.0171 37.5182C61.1751 42.8076 58.1696 47.6001 54.2293 51.5309C48.6162 57.0226 42.4268 61.8718 35.7724 65.9913L35.0466 66.4654L34.3466 65.9913Z" fill="white"/>
<path d="M35.0318 66.4655L34.3467 65.9913C27.6796 61.8788 21.4809 57.0291 15.8638 51.5309C11.886 47.611 8.84449 42.8177 6.97239 37.5183C3.68022 27.1932 7.54269 15.3931 18.3265 11.89C24.0184 10.1024 30.2905 11.2006 35.0318 14.8713V66.4655Z" fill="white"/>
<path d="M53.1722 31.4631C52.5863 31.4254 52.0407 31.1326 51.6632 30.6533C51.2857 30.174 51.1094 29.5503 51.1757 28.9283C51.2391 26.8798 50.0735 25.0152 48.2759 24.2897C47.1361 23.9786 46.4459 22.7441 46.731 21.5268C47.0016 20.329 48.1232 19.5842 49.2504 19.8538C49.3928 19.8774 49.5298 19.929 49.6545 20.0059C53.2586 21.3929 55.5921 25.1257 55.4064 29.2072C55.4005 29.8258 55.1593 30.4153 54.7381 30.8406C54.3169 31.266 53.7517 31.4906 53.1722 31.4631Z" fill="white"/>
</g>
<defs>
<clipPath id="clip0_35606_16">
<rect width="72" height="72" fill="white" transform="translate(0 0.298767)"/>
</clipPath>
</defs>
</svg>
