<svg width="24" height="24" viewBox="0 0 24 24" fill="none" xmlns="http://www.w3.org/2000/svg">
<g clip-path="url(#clip0_27199_462)">
<path d="M23.9931 23.9997V23.9987H23.9991V15.1967C23.9991 10.8907 23.0721 7.57373 18.0381 7.57373C15.6181 7.57373 13.9941 8.90173 13.3311 10.1607H13.2611V7.97573H8.48811V23.9987H13.4581V16.0647C13.4581 13.9757 13.8541 11.9557 16.4411 11.9557C18.9901 11.9557 19.0281 14.3397 19.0281 16.1987V23.9997H23.9931Z" fill="black"/>
<path d="M0.396465 7.97705H5.37247V24H0.396465V7.97705Z" fill="black"/>
<path d="M2.882 0C1.291 0 0 1.291 0 2.882C0 4.473 1.291 5.791 2.882 5.791C4.473 5.791 5.764 4.473 5.764 2.882C5.763 1.291 4.472 0 2.882 0V0Z" fill="black"/>
</g>
<defs>
<clipPath id="clip0_27199_462">
<rect width="24" height="24" fill="white"/>
</clipPath>
</defs>
</svg>
