<svg width="72" height="73" viewBox="0 0 72 73" fill="none" xmlns="http://www.w3.org/2000/svg">
<path opacity="0.4" d="M38.9289 9.6396L45.6083 23.0625C46.1004 24.035 47.0396 24.7103 48.1229 24.8604L63.1261 27.0455C64.0023 27.1686 64.7975 27.6308 65.3346 28.3361C65.8657 29.0325 66.0937 29.915 65.9647 30.7824C65.8597 31.5028 65.5206 32.1691 65.0015 32.6794L54.1302 43.2177C53.335 43.9531 52.9749 45.0426 53.167 46.1082L55.8435 60.9237C56.1286 62.7126 54.9433 64.3995 53.167 64.7387C52.4348 64.8557 51.6846 64.7327 51.0245 64.3965L37.6416 57.4239C36.6484 56.9227 35.4752 56.9227 34.4819 57.4239L21.0991 64.3965C19.4547 65.2699 17.4173 64.6756 16.5021 63.0548C16.163 62.4095 16.043 61.6741 16.154 60.9567L18.8306 46.1382C19.0226 45.0757 18.6596 43.9801 17.8674 43.2447L6.99605 32.7124C5.70277 31.4637 5.66376 29.4077 6.90903 28.114C6.93604 28.087 6.96604 28.057 6.99605 28.027C7.51216 27.5017 8.19031 27.1686 8.92246 27.0815L23.9257 24.8934C25.0059 24.7403 25.9451 24.071 26.4402 23.0925L32.8796 9.6396C33.4527 8.48702 34.641 7.76965 35.9313 7.79967H36.3333C37.4526 7.93474 38.4278 8.62809 38.9289 9.6396Z" fill="white"/>
<path d="M35.976 57.0501C35.3949 57.0682 34.8288 57.2243 34.3196 57.5035L21.0022 64.4602C19.3727 65.2379 17.4227 64.6344 16.5091 63.0761C16.1706 62.4396 16.0478 61.71 16.1616 60.9954L18.8215 46.2083C19.0013 45.1334 18.6418 44.0405 17.86 43.2839L6.98381 32.7542C5.69281 31.4902 5.66884 29.4155 6.93289 28.1214C6.95086 28.1034 6.96584 28.0884 6.98381 28.0734C7.49902 27.563 8.16399 27.2267 8.87988 27.1216L23.8957 24.9118C24.983 24.7737 25.9266 24.0951 26.4058 23.1103L32.9327 9.48812C33.5528 8.38922 34.7419 7.73469 36 7.80374C35.976 8.69547 35.976 56.4437 35.976 57.0501Z" fill="white"/>
</svg>
