<svg width="42" height="52" viewBox="0 0 42 52" fill="#000000" xmlns="http://www.w3.org/2000/svg">
<path fill-rule="evenodd" clip-rule="evenodd" d="M10.5949 3.10908C17.1494 -0.699411 25.2061 -0.632841 31.6991 3.28345C38.1284 7.27947 42.0359 14.4113 41.9995 22.0831C41.8499 29.7046 37.6599 36.8688 32.4224 42.4071C29.3995 45.618 26.0178 48.4573 22.3465 50.8669C21.9684 51.0856 21.5542 51.2319 21.1245 51.2988C20.7108 51.2812 20.3079 51.159 19.9523 50.9431C14.3473 47.3225 9.43 42.7009 5.437 37.3007C2.0958 32.7929 0.197503 27.3468 3.42523e-06 21.7021C-0.00429657 14.0155 4.0403 6.91757 10.5949 3.10908ZM14.3825 24.8831C15.4851 27.6013 18.0875 29.3743 20.9748 29.3743C22.8663 29.3879 24.6846 28.6303 26.0244 27.2702C27.3643 25.9102 28.1144 24.0607 28.1077 22.1339C28.1178 19.1929 26.3864 16.5357 23.7218 15.4031C21.0572 14.2705 17.9851 14.8858 15.94 16.9618C13.8948 19.0378 13.2799 22.165 14.3825 24.8831Z" fill="#000000"/>
</svg>
