<svg width="26" height="26" viewBox="0 0 26 26" fill="none" xmlns="http://www.w3.org/2000/svg">
<g clip-path="url(#clip0_27199_460)">
<path d="M25.4242 6.42318L25.4567 6.63551C25.1425 5.52076 24.2942 4.6606 23.2163 4.34751L23.1936 4.3421C21.1667 3.79176 13.0102 3.79176 13.0102 3.79176C13.0102 3.79176 4.8744 3.78093 2.8269 4.3421C1.7284 4.6606 0.87907 5.52076 0.57032 6.61276L0.564903 6.63551C-0.192347 10.5908 -0.197764 15.3433 0.598487 19.5781L0.564903 19.3636C0.87907 20.4783 1.72732 21.3385 2.80524 21.6516L2.82799 21.657C4.85274 22.2084 13.0113 22.2084 13.0113 22.2084C13.0113 22.2084 21.1461 22.2084 23.1947 21.657C24.2942 21.3385 25.1436 20.4783 25.4523 19.3863L25.4577 19.3636C25.8022 17.5241 25.9994 15.4073 25.9994 13.2449C25.9994 13.1658 25.9994 13.0857 25.9983 13.0055C25.9994 12.9318 25.9994 12.8441 25.9994 12.7563C25.9994 10.5929 25.8022 8.4761 25.4242 6.42318ZM10.4081 16.9553V9.0546L17.1962 13.0109L10.4081 16.9553Z" fill="black"/>
</g>
<defs>
<clipPath id="clip0_27199_460">
<rect width="26" height="26" fill="white"/>
</clipPath>
</defs>
</svg>
